<svg version="1.1" viewBox="0.0 0.0 570.8845144356956 562.1154855643044" fill="none" stroke="none" stroke-linecap="square" stroke-miterlimit="10" xmlns:xlink="http://www.w3.org/1999/xlink" xmlns="http://www.w3.org/2000/svg"><clipPath id="p.0"><path d="m0 0l570.8845 0l0 562.1155l-570.8845 0l0 -562.1155z" clip-rule="nonzero"/></clipPath><g clip-path="url(#p.0)"><path fill="#000000" fill-opacity="0.0" d="m0 0l570.8845 0l0 562.1155l-570.8845 0z" fill-rule="evenodd"/><path fill="#000000" fill-opacity="0.0" d="m21.6916 279.9265l0 0c0 -146.11629 118.45064 -264.56693 264.56696 -264.56693l0 0c70.16751 0 137.46112 27.873936 187.07706 77.48986c49.615936 49.61592 77.48984 116.90956 77.48984 187.07707l0 0c0 146.11627 -118.45062 264.5669 -264.5669 264.5669l0 0c-146.1163 0 -264.56696 -118.45062 -264.56696 -264.5669z" fill-rule="evenodd"/><path fill="#000000" fill-opacity="0.0" d="m229.56561 -2.8661418l113.38583 0l0 75.59055l-113.38583 0z" fill-rule="evenodd"/><path fill="#ffffff" d="m252.9211 67.57386l0 -7.609375l10.937515 0l0 -23.5l-9.031265 0l0 -5.8125q2.0625153 -0.328125 3.6875153 -0.671875q1.625 -0.359375 2.96875 -0.796875q1.34375 -0.453125 2.53125 -1.0q1.1875 -0.546875 2.34375 -1.25l6.90625 0l0 33.03125l9.21875 0l0 7.609375l-29.562515 0zm37.0562 0l0 -5.375q4.34375 -3.65625 7.921875 -6.8125q3.59375 -3.171875 6.15625 -5.921875q2.5625 -2.75 3.96875 -5.1875q1.40625 -2.4375 1.40625 -4.609375q0 -3.0 -1.734375 -4.5625q-1.71875 -1.578125 -4.921875 -1.578125q-2.4375 0 -4.453125 1.25q-2.015625 1.25 -3.75 2.90625l-5.046875 -5.046875q1.59375 -1.609375 3.15625 -2.8125q1.578125 -1.21875 3.328125 -2.015625q1.765625 -0.8125 3.71875 -1.21875q1.953125 -0.421875 4.328125 -0.421875q3.1875 0 5.8125 0.9375q2.625 0.921875 4.515625 2.625q1.890625 1.6875 2.9375 4.0625q1.0625 2.359375 1.0625 5.296875q0 2.5625 -1.21875 5.21875q-1.203125 2.65625 -3.296875 5.3125q-2.078125 2.65625 -4.765625 5.3125q-2.6875 2.65625 -5.625 5.21875q1.71875 -0.1875 3.734375 -0.34375q2.015625 -0.171875 3.625 -0.171875l9.65625 0l0 7.9375l-30.515625 0z" fill-rule="nonzero"/><path fill="#000000" fill-opacity="0.0" d="m379.4181 5.734669l98.20471 56.692913l-37.795258 65.44882l-98.20474 -56.692917z" fill-rule="evenodd"/><path fill="#ffffff" d="m381.05087 88.01237l3.8053284 -6.589546l9.472382 5.4683456l11.751953 -20.350471l-7.821472 -4.5152893l2.9067383 -5.033493q1.9502869 0.74702454 3.529541 1.2617836q1.5870361 0.50122833 2.969574 0.79418945q1.3903503 0.27942657 2.6922607 0.3995514q1.3019104 0.12012482 2.6549072 0.08931732l5.98114 3.4528694l-16.518402 28.604317l7.9838867 4.6090317l-3.8053284 6.589546l-25.602509 -14.780151z" fill-rule="nonzero"/><path fill="#000000" fill-opacity="0.0" d="m503.83005 89.19018l56.661407 98.20472l-65.480316 37.795288l-56.661407 -98.20473z" fill-rule="evenodd"/><path fill="#ffffff" d="m463.41714 160.09637l4.6552124 -2.6869812q5.3374023 1.9346466 9.859161 3.4560852q4.543091 1.5271606 8.205444 2.3719788q3.6623535 0.8448181 6.4761963 0.84436035q2.8138428 -4.7302246E-4 4.6948853 -1.0861969q2.598236 -1.4997101 3.0847168 -3.7830658q0.507843 -2.2776337 -1.092926 -5.0520782q-1.2181702 -2.1112823 -3.308075 -3.2322693q-2.0899353 -1.1209869 -4.391144 -1.7952881l1.8488159 -6.8943787q2.1903381 0.57592773 4.013214 1.3278656q1.8442078 0.7576599 3.4089355 1.8750916q1.5860596 1.1231537 2.9140015 2.6118011q1.3414612 1.480835 2.5283813 3.5379791q1.5929565 2.76091 2.092865 5.5032654q0.51342773 2.7345276 -0.01675415 5.223526q-0.5166626 2.481186 -2.0504456 4.575226q-1.5124207 2.099762 -4.0565186 3.568222q-2.2193298 1.2810059 -5.128937 1.5532227q-2.9017944 0.2857666 -6.2486877 -0.1999054q-3.3390808 -0.47213745 -6.982727 -1.4720917q-3.6436157 -0.9999695 -7.330963 -2.263321q1.0213318 1.394989 2.163971 3.0627441q1.156189 1.6599426 1.9604797 3.0539398l4.8257446 8.363922l-6.8745117 3.967987l-15.250336 -26.43164z" fill-rule="nonzero"/><path fill="#000000" fill-opacity="0.0" d="m569.7554 223.18712l-0.06298828 113.44881l-75.590546 0.03149414l0.06298828 -113.44881z" fill-rule="evenodd"/><path fill="#ffffff" d="m498.51898 278.6006q0.00289917 -5.2499695 1.5675049 -9.031891q1.5802307 -3.7662659 4.190918 -6.1423645l5.950714 4.356903q-1.7824097 2.0476074 -2.940033 4.5637207q-1.1576843 2.5317383 -1.1592407 5.3442383q-0.0018310547 3.328125 1.2469788 5.468231q1.2488098 2.1557007 3.5456848 2.1547546q1.34375 -5.493164E-4 2.4378052 -0.5791321q1.0940552 -0.57858276 1.8292236 -1.9851379q0.73516846 -1.4065552 1.1427612 -3.7817383q0.42315674 -2.3595276 0.4251709 -5.9532776l6.65625 -0.0027770996q-0.0033569336 6.015625 1.4953003 8.483734q1.5142212 2.4681091 3.9360962 2.467102q2.125 -8.8500977E-4 3.2977905 -1.6107483q1.1883545 -1.5942383 1.1899414 -4.4067383q0.0013427734 -2.4375 -0.96624756 -4.4839783q-0.95202637 -2.0464783 -2.6071167 -4.1551514l5.7526855 -4.7367554q2.435791 2.9989624 3.808899 6.420288q1.3731079 3.4369202 1.3709106 7.390045q-0.0018310547 3.328125 -0.73773193 6.07843q-0.7359009 2.7659302 -2.1745605 4.750885q-1.4385986 1.9849854 -3.501648 3.0639648q-2.0474854 1.0946045 -4.7349854 1.0957336q-3.1875 0.0013122559 -5.4051514 -2.0446167q-2.2019653 -2.0459595 -3.6062012 -5.7016296l-0.265625 1.2207031E-4q-1.0177612 3.8441467 -3.487976 6.4701843q-2.4545898 2.6260376 -6.42334 2.6276855q-2.828125 0.001159668 -5.0305176 -1.3104248q-2.2023926 -1.3115845 -3.7167969 -3.5296936q-1.4987488 -2.2024841 -2.2940063 -5.1396484q-0.79525757 -2.9371948 -0.79345703 -6.14032z" fill-rule="nonzero"/><path fill="#000000" fill-opacity="0.0" d="m560.58606 373.19556l-56.850372 98.17325l-65.480316 -37.795288l56.850403 -98.17322z" fill-rule="evenodd"/><path fill="#ffffff" d="m469.837 389.34332l8.430786 4.866272l9.818878 -16.955963l5.588928 3.2259216l12.674988 26.908539l-5.7080994 9.857178l-20.569458 -11.872711l-2.5682678 4.4350586l-6.1979065 -3.577423l2.5682678 -4.4350586l-8.430786 -4.8662415l4.3926697 -7.5855713zm19.890472 -0.64276123l-5.2618103 9.086456l5.940796 3.429016q1.6509705 0.9529419 3.7962646 2.2994385q2.1452942 1.3465271 3.7471619 2.4154358l0.12527466 -0.21633911q-0.98532104 -1.7594299 -1.90802 -3.6270447q-0.9169922 -1.846283 -1.8574524 -3.6519775l-4.5822144 -9.734985z" fill-rule="nonzero"/><path fill="#000000" fill-opacity="0.0" d="m477.67017 498.22607l-98.2677 56.629944l-37.826782 -65.48035l98.26773 -56.629913z" fill-rule="evenodd"/><path fill="#ffffff" d="m393.8631 464.33942q4.6028748 -2.6525574 8.610657 -3.08667q4.002075 -0.41275024 7.379608 0.4360962l-0.69091797 7.269043q-2.6019592 -0.41210938 -5.2131042 -0.27792358q-2.6246948 0.14196777 -5.1156616 1.5774841q-2.9918823 1.7241821 -4.1035156 4.2042236q-1.1173401 2.5014038 0.4536438 5.220886q1.5319214 2.651825 4.129669 2.9942322q2.6055908 0.3559265 5.4349976 -1.2746277q0.89349365 -0.5148926 1.5370483 -0.9939575q0.64352417 -0.47906494 1.1740112 -1.0913391q0.53829956 -0.5987549 1.0739746 -1.3583069q0.5299072 -0.7381897 1.120697 -1.7459106l4.958954 0.24407959l9.3302 18.337677l-21.565887 12.42804l-3.970459 -6.8730774l14.526184 -8.371185l-3.1971436 -6.940033q-0.96829224 1.1351013 -1.9148254 1.9330444q-0.9387207 0.8114624 -2.265442 1.5760193q-2.436798 1.4042969 -5.0129395 2.0052185q-2.5761108 0.60092163 -5.015045 0.22106934q-2.4311218 -0.3663025 -4.5803223 -1.8688965q-2.1549072 -1.4812927 -3.7884216 -4.3089905q-1.6960449 -2.9359436 -1.8719482 -5.8642883q-0.1758728 -2.9283142 0.81851196 -5.611328q1.0021973 -2.6694946 3.0221252 -4.9516296q2.0142212 -2.2608032 4.7353516 -3.828949z" fill-rule="nonzero"/><path fill="#000000" fill-opacity="0.0" d="m342.96637 564.9808l-113.41731 -0.15753174l0 -75.6535l113.41731 0.1574707z" fill-rule="evenodd"/><path fill="#ffffff" d="m285.17645 493.69482q3.1249695 0.004333496 6.0780945 1.1490479q2.9375 1.1603394 5.25 3.6010437q2.296875 2.4407043 3.703125 6.2395325q1.40625 3.8144531 1.40625 9.189453q0 5.703125 -1.46875 9.857361q-1.46875 4.154175 -3.9375 6.838257q-2.46875 2.684082 -5.59375 3.9922485q-3.140625 1.3081665 -6.5312195 1.3034668q-4.359375 -0.0061035156 -7.609375 -1.4481201q-3.265625 -1.4420166 -5.3125 -3.4291992l4.921875 -5.63385q1.28125 1.158081 3.203125 2.0200806q1.921875 0.87768555 3.96875 0.8805542q1.84375 0.0025634766 3.5468445 -0.6669922q1.703125 -0.6694946 3.015625 -2.1832886q1.296875 -1.49823 2.140625 -3.9345093q0.828125 -2.4207764 0.953125 -6.0143433q-2.171875 2.1220093 -4.828125 3.2589111q-2.6562195 1.1525879 -4.9687195 1.149353q-2.6875 -0.0037231445 -4.953125 -0.77246094q-2.265625 -0.7687988 -3.953125 -2.3179932q-1.703125 -1.5336304 -2.65625 -3.9099731q-0.96875 -2.3607178 -0.96875 -5.563843q0 -3.203125 1.1875 -5.701477q1.171875 -2.4827576 3.1875 -4.276825q2.015625 -1.7784729 4.640625 -2.7123108q2.625 -0.9182434 5.578125 -0.91412354zm0.1875 7.031494q-1.21875 -0.0016784668 -2.328125 0.38739014q-1.125 0.3890686 -1.984375 1.1847534q-0.875 0.7956543 -1.375 2.044983q-0.515625 1.2492676 -0.515625 2.9680176q0 3.140625 1.671875 4.517975q1.65625 1.3772888 4.34375 1.381012q1.7812195 0.0025024414 3.7030945 -0.90112305q1.921875 -0.88793945 3.78125 -3.0572205q-0.390625 -2.4224243 -1.125 -4.064087q-0.734375 -1.6260071 -1.6875 -2.6273499q-0.96875 -0.9857178 -2.109375 -1.4091797q-1.15625 -0.4234619 -2.3749695 -0.4251709z" fill-rule="nonzero"/><path fill="#000000" fill-opacity="0.0" d="m193.99498 555.17065l-98.14173 -56.881866l37.826775 -65.543304l98.14172 56.881897z" fill-rule="evenodd"/><path fill="#ffffff" d="m186.0523 469.15112q-2.746811 4.259308 -5.5065765 7.5720215q-2.7597504 3.3127136 -5.886322 5.9794006q-3.1265717 2.666687 -6.841049 4.757843q-3.7358093 2.0968628 -8.522156 3.9821472l17.668716 10.240601l-3.9676056 6.874756l-26.415192 -15.309967l2.8819733 -4.9936523q5.465576 -1.7805786 9.394836 -3.837555q3.9079437 -2.0512695 7.0699615 -4.8418884q3.1620178 -2.790619 5.9506073 -6.4658813q2.7885895 -3.6752625 5.9805756 -8.705963l8.19223 4.7481384z" fill-rule="nonzero"/><path fill="#000000" fill-opacity="0.0" d="m69.32433 470.85474l-56.535435 -98.33069l65.54331 -37.858276l56.535423 98.33072z" fill-rule="evenodd"/><path fill="#ffffff" d="m102.745346 386.12607q1.7601166 3.0613403 2.471939 5.8981323q0.7118225 2.836792 0.42907715 5.2917175q-0.29627228 2.462738 -1.5391388 4.4076233q-1.2506409 1.931366 -3.415474 3.1817627q-1.5965576 0.9221802 -3.1991882 1.144165q-1.6161652 0.22976685 -3.1797943 -0.07601929q-1.5849457 -0.31152344 -3.095642 -1.026825q-1.5242233 -0.707489 -2.9951172 -1.6983948l-0.21648407 0.12506104q-0.28650665 3.1066895 -1.3994751 5.716339q-1.1129684 2.6096802 -3.940773 4.243042q-2.2189484 1.2816772 -4.5324783 1.427063q-2.31353 0.14541626 -4.488785 -0.6912842q-2.196579 -0.8424072 -4.1368103 -2.6809387q-1.9402313 -1.838562 -3.4355469 -4.439331q-1.5342636 -2.668518 -2.0669556 -5.193756q-0.5404892 -2.5387878 -0.13887405 -4.755615q0.380291 -2.2225647 1.7203026 -4.061157q1.3322296 -1.8521729 3.497055 -3.1026q2.4895554 -1.4379578 5.286804 -1.086853q2.7759323 0.34536743 5.3168335 1.6925964l0.21648407 -0.12503052q-0.1391983 -1.7781372 0.025802612 -3.4974365q0.15146637 -1.7114563 0.75471497 -3.2327576q0.595459 -1.5348511 1.7279663 -2.8566284q1.1189728 -1.3139648 2.891426 -2.3377686q2.1107025 -1.2191467 4.397171 -1.3489075q2.2786865 -0.14331055 4.5646286 0.7918396q2.2724075 0.94296265 4.457367 3.0190735q2.1771774 2.062561 4.0229645 5.272888zm-22.576576 9.79245q-3.9155731 -1.2930298 -6.675728 0.301239q-2.0565872 1.1878967 -2.561493 3.1937256q-0.5126877 1.9923096 0.8891754 4.4305115q1.1137009 1.9370422 2.901535 2.7268372q1.76651 0.7840576 3.8230972 -0.4038391q2.1512985 -1.2425842 2.268837 -3.890808q0.09622955 -2.6539307 -0.6454239 -6.357666zm16.796356 -6.742462q-1.4330139 -2.4924011 -3.381958 -3.4056702q-1.962471 -0.90545654 -4.1814194 0.3762207q-1.2177124 0.70336914 -1.6925888 1.7896423q-0.48840332 1.0941162 -0.5242462 2.6305237q-0.049362183 1.54422 0.26447296 3.4380188q0.31383514 1.8937988 0.67928314 4.190857q1.9739609 0.86273193 3.9283142 1.0330505q1.9330292 0.16461182 3.6513596 -0.8279114q2.3271942 -1.3441772 2.5746918 -3.9231262q0.24749756 -2.5789185 -1.3179092 -5.301605z" fill-rule="nonzero"/><path fill="#000000" fill-opacity="0.0" d="m1.1289868 336.65015l0.2519685 -113.44881l75.685036 0l-0.25196838 113.44881z" fill-rule="evenodd"/><path fill="#ffffff" d="m49.801907 281.07883q0.004131317 -1.8593445 -0.9134102 -3.8124695q-0.9331627 -1.953125 -3.1012268 -3.671875q-2.3602142 0.375 -3.986847 1.109375q-1.6422615 0.734375 -2.6288605 1.734375q-1.0021896 0.984375 -1.4266319 2.140625q-0.4244461 1.15625 -0.42715073 2.3749695q-0.002708435 1.21875 0.38542175 2.34375q0.3881607 1.109375 1.183094 1.984375q0.79496765 0.859375 2.043827 1.375q1.2488899 0.5 2.9676476 0.5q3.1406326 0 4.519314 -1.65625q1.3787155 -1.671875 1.3848228 -4.421875zm22.653881 1.09375q-0.009651184 4.34375 -1.4856567 7.609375q-1.4760056 3.2655945 -3.4025726 5.3749695l-5.629566 -4.9843445q1.1590958 -1.28125 2.0383682 -3.203125q0.86364365 -1.921875 0.86819077 -3.96875q0.0041275024 -1.859375 -0.66400146 -3.5468445q-0.6680908 -1.703125 -2.1651802 -3.015625q-1.5127144 -1.3125 -3.9640045 -2.140625q-2.466919 -0.828125 -6.060364 -0.96875q2.1200066 2.25 3.301609 4.90625q1.1659813 2.6562195 1.1610184 4.8905945q-0.005970001 2.6875 -0.7767334 5.0q-0.77072906 2.296875 -2.3057632 4.0q-1.5506287 1.6874695 -3.912159 2.6562195q-2.3771248 0.953125 -5.5802574 0.953125q-3.1250076 0 -5.6536255 -1.1875q-2.5286179 -1.1875 -4.305397 -3.2030945q-1.7924042 -2.015625 -2.7084503 -4.640625q-0.93167114 -2.625 -0.925148 -5.5625q0.006975174 -3.1405945 1.1698227 -6.1093445q1.147255 -2.984375 3.5898628 -5.28125q2.4426422 -2.3125 6.2582054 -3.6874695q3.7999382 -1.375 9.174953 -1.375q5.7031364 0 9.856102 1.484375q4.152996 1.4687195 6.835087 3.9062195q2.682129 2.421875 3.987587 5.59375q1.3054581 3.171875 1.2980728 6.4999695z" fill-rule="nonzero"/><path fill="#000000" fill-opacity="0.0" d="m11.319771 186.58l56.97638 -98.14173l65.54331 37.85827l-56.976387 98.14174z" fill-rule="evenodd"/><path fill="#ffffff" d="m84.06626 201.57198l-6.5891953 -3.8059692l5.4914474 -9.459015l-20.349384 -11.753937l-4.5343704 7.81044l-5.033222 -2.9072266q0.7513962 -1.947815 1.2696037 -3.5250854q0.5046768 -1.5850983 0.80049515 -2.9660187q0.2822914 -1.3887482 0.4049492 -2.6892548q0.122657776 -1.3005066 0.094322205 -2.6521454l3.4674606 -5.972687l28.602787 16.521164l4.6285095 -7.972595l6.5891953 3.8059692l-14.842598 25.56636zm27.04229 -45.05539q-1.7651062 3.04039 -4.407074 4.852539q-2.6341248 1.798645 -5.9889984 2.2246246q-3.3548737 0.42599487 -7.3563766 -0.5861206q-4.0014954 -1.0121155 -8.493515 -3.6067352q-4.478485 -2.5868073 -7.296196 -5.5135193q-2.8177109 -2.926712 -4.0901566 -6.025467q-1.2724457 -3.098755 -0.96551514 -6.2415924q0.3147812 -3.1563568 2.0798874 -6.196747q1.7651062 -3.0404053 4.345108 -4.8703003q2.5878448 -1.8434143 5.9156647 -2.285019q3.3278122 -0.44161987 7.2673492 0.55274963q3.94738 0.9808502 8.425865 3.5676575q4.4920197 2.5946198 7.363846 5.552582q2.8796768 2.944458 4.179184 6.058853q1.2995071 3.11438 1.0388489 6.302002q-0.25281525 3.1740875 -2.0179214 6.214493zm-6.3185883 -3.6496735q0.7687988 -1.3242493 0.8189163 -2.81102q0.050117493 -1.4867554 -0.878479 -3.1238098q-0.934288 -1.6583862 -2.9441528 -3.4869385q-2.0098724 -1.8285522 -5.446533 -3.8135834q-3.4366684 -1.9850464 -6.0 -2.7980194q-2.5633316 -0.81295776 -4.402733 -0.7566681q-1.8315582 0.042770386 -3.0452652 0.85743713q-1.2137146 0.8146515 -1.9825134 2.138916q-0.7766495 1.3377686 -0.8808899 2.793274q-0.09638977 1.4419861 0.7702408 3.0612946q0.8744812 1.6058044 2.8572845 3.4187164q1.982811 1.8129272 5.4194717 3.7979584q3.4366684 1.9850464 6.0270615 2.8136444q2.590393 0.828598 4.489601 0.82489014q1.8935242 -0.025024414 3.153511 -0.7949066q1.2678299 -0.7834015 2.0444794 -2.1211853zm-7.9828033 -4.610916q-1.0276871 1.7701874 -2.854576 2.3028564q-1.826889 0.5326538 -3.7617035 -0.5848999q-1.9348145 -1.117569 -2.3809967 -2.9631805q-0.44618225 -1.8455963 0.5815048 -3.6157837q1.0276871 -1.7701874 2.854576 -2.3028412q1.8268814 -0.53266907 3.7617035 0.5848999q1.9348145 1.1175537 2.3809967 2.9631653q0.44617462 1.8455963 -0.5815048 3.6157837z" fill-rule="nonzero"/><path fill="#000000" fill-opacity="0.0" d="m94.59679 62.84714l98.39371 -56.503937l37.826767 65.54331l-98.39371 56.50393z" fill-rule="evenodd"/><path fill="#ffffff" d="m150.09386 112.20581l-3.8035889 -6.5905685l9.484802 -5.4467773l-11.746613 -20.353622l-7.8317413 4.49749l-2.9054108 -5.034279q1.6245422 -1.3112946 2.8618927 -2.4182587q1.229538 -1.120491 2.1761322 -2.1685944q0.9387665 -1.0616302 1.6951904 -2.126648q0.75642395 -1.0650253 1.4076385 -2.2498093l5.988983 -3.4392548l16.510849 28.608742l7.994339 -4.590851l3.8035889 6.590561l-25.636063 14.72187zm33.29973 -19.122833l-3.8035889 -6.5905685l9.484802 -5.4467773l-11.746613 -20.353615l-7.8317413 4.4974823l-2.9054108 -5.0342712q1.6245575 -1.3113022 2.8618927 -2.4182625q1.229538 -1.1204948 2.1761322 -2.1685944q0.93878174 -1.0616302 1.6951904 -2.1266518q0.75642395 -1.0650177 1.4076385 -2.2498055l5.988983 -3.439251l16.510864 28.608742l7.9943237 -4.5908585l3.8035889 6.5905685l-25.636063 14.721863z" fill-rule="nonzero"/></g></svg>